<?xml version="1.0" encoding="UTF-8"?>
<svg xmlns="http://www.w3.org/2000/svg" xmlns:xlink="http://www.w3.org/1999/xlink" version="1.1" id="Capa_1" x="0px" y="0px" viewBox="0 0 512 512" style="enable-background:new 0 0 512 512;" xml:space="preserve" width="512" height="512">
<g>
	<g>
		<path style="fill:#DCDBDD;" d="M327.191,64.32l-9.807,15.937L299.221,74.5l-12.896-35.411c-0.378-1.038-1.525-1.573-2.563-1.195&#10;&#9;&#9;&#9;L175.64,77.246c-1.038,0.378-1.573,1.526-1.195,2.564l12.896,35.41l-4.639,10.18h-23.331l-13.5-37.07&#10;&#9;&#9;&#9;c-5.66-15.57,2.36-32.79,17.93-38.45l111.44-40.56c15.57-5.67,32.79,2.36,38.45,17.93L327.191,64.32z"/>
		<path style="fill:#F9F8F9;" d="M399.944,504.5H171.381l-17.301-6.871c-5.207,0-9.542-3.995-9.967-9.184L123.784,154h308.639&#10;&#9;&#9;&#9;c2.922,0,5.222,2.495,4.983,5.408l-27.496,335.908C409.486,500.505,405.15,504.5,399.944,504.5z"/>
		<path style="fill:#E8E8E8;" d="M171.381,504.5h-20.78c-5.21,0-9.55-4-9.97-9.18l-27.5-335.91c-0.23-2.91,2.07-5.41,4.99-5.41&#10;&#9;&#9;&#9;h24.57L171.381,504.5z"/>
		<path style="fill:#E8E8E8;" d="M432.671,78.67L144.937,183.386L90.57,200.739c-2.59,0.94-5.46-0.4-6.41-2.99l-2.824-9.633&#10;&#9;&#9;&#9;c-5.66-15.57,2.36-32.79,17.93-38.45l51.41-21.101l8.694-3.165l27.97-10.18l111.88-40.72l27.97-10.18l65.04-23.67&#10;&#9;&#9;&#9;c15.57-5.67,32.78,2.36,38.45,17.93l4.98,13.68C436.611,74.85,435.271,77.72,432.671,78.67z"/>
		<path style="fill:#DCDBDD;" d="M138.557,164.546l6.38,18.84L87.781,204.2c-2.59,0.94-5.46-0.4-6.41-2.99l-4.98-13.68&#10;&#9;&#9;&#9;c-5.66-15.57,2.36-32.79,17.93-38.45l58.156-21.184C139.587,134.836,133.407,150.376,138.557,164.546z"/>
		<g>
			<g>
				<path style="fill:#E8E8E8;" d="M199.325,460.751c-7.928,0-14.552-6.216-14.967-14.225l-12.067-233&#10;&#9;&#9;&#9;&#9;&#9;c-0.428-8.273,5.931-15.327,14.204-15.756c8.279-0.436,15.327,5.932,15.756,14.204l12.067,233&#10;&#9;&#9;&#9;&#9;&#9;c0.428,8.273-5.931,15.327-14.204,15.756C199.849,460.744,199.586,460.751,199.325,460.751z"/>
			</g>
			<g>
				<path style="fill:#E8E8E8;" d="M351.217,460.751c-0.262,0-0.523-0.007-0.788-0.021c-8.273-0.429-14.633-7.482-14.204-15.756&#10;&#9;&#9;&#9;&#9;&#9;l12.066-233c0.428-8.273,7.474-14.631,15.755-14.204c8.273,0.429,14.633,7.482,14.204,15.756l-12.066,233&#10;&#9;&#9;&#9;&#9;&#9;C365.77,454.534,359.145,460.751,351.217,460.751z"/>
			</g>
			<g>
				<path style="fill:#E8E8E8;" d="M275.271,460.75c-8.284,0-15-6.716-15-15v-233c0-8.284,6.716-15,15-15s15,6.716,15,15v233&#10;&#9;&#9;&#9;&#9;&#9;C290.271,454.034,283.555,460.75,275.271,460.75z"/>
			</g>
		</g>
	</g>
	<g>
		<path style="fill:none;stroke:#000000;stroke-width:15;stroke-linecap:round;stroke-linejoin:round;stroke-miterlimit:10;" d="&#10;&#9;&#9;&#9;M414.304,441.645l-4.393,53.671c-0.425,5.189-4.76,9.184-9.967,9.184H150.597c-5.207,0-9.542-3.995-9.967-9.184L115.97,194.043"/>
		<path style="fill:none;stroke:#000000;stroke-width:15;stroke-linecap:round;stroke-linejoin:round;stroke-miterlimit:10;" d="&#10;&#9;&#9;&#9;M371.204,154h61.219c2.922,0,5.222,2.495,4.983,5.408L417.147,406.91"/>
		
			<line style="fill:none;stroke:#000000;stroke-width:15;stroke-linecap:round;stroke-linejoin:round;stroke-miterlimit:10;" x1="225.824" y1="154" x2="336.204" y2="154"/>
		<g>
			<path style="fill:none;stroke:#000000;stroke-width:15;stroke-linecap:round;stroke-linejoin:round;stroke-miterlimit:10;" d="&#10;&#9;&#9;&#9;&#9;M432.674,78.667L87.782,204.197c-2.595,0.944-5.464-0.393-6.408-2.988l-4.98-13.682c-5.667-15.569,2.361-32.784,17.93-38.451&#10;&#9;&#9;&#9;&#9;L392.231,40.647c15.569-5.667,32.784,2.361,38.451,17.93l4.98,13.682C436.606,74.853,435.268,77.723,432.674,78.667z"/>
			<path style="fill:none;stroke:#000000;stroke-width:15;stroke-linecap:round;stroke-linejoin:round;stroke-miterlimit:10;" d="&#10;&#9;&#9;&#9;&#9;M218.771,29.872l56.473-20.554c15.569-5.667,32.784,2.361,38.451,17.93l13.494,37.073"/>
			<path style="fill:none;stroke:#000000;stroke-width:15;stroke-linecap:round;stroke-linejoin:round;stroke-miterlimit:10;" d="&#10;&#9;&#9;&#9;&#9;M159.367,125.402l-13.494-37.073c-5.667-15.569,2.361-32.784,17.93-38.451l22.569-8.215"/>
			
				<polyline style="fill:none;stroke:#000000;stroke-width:15;stroke-linecap:round;stroke-linejoin:round;stroke-miterlimit:10;" points="&#10;&#9;&#9;&#9;&#9;187.337,115.222 173.764,77.928 285.644,37.207 299.218,74.501 &#9;&#9;&#9;"/>
		</g>
		<g>
			<g>
				<path style="fill:none;stroke:#000000;stroke-width:15;stroke-linecap:round;stroke-linejoin:round;stroke-miterlimit:10;" d="&#10;&#9;&#9;&#9;&#9;&#9;M199.325,460.751c-7.928,0-14.552-6.216-14.967-14.225l-12.067-233c-0.428-8.273,5.931-15.327,14.204-15.756&#10;&#9;&#9;&#9;&#9;&#9;c8.279-0.436,15.327,5.932,15.756,14.204l12.067,233c0.428,8.273-5.931,15.327-14.204,15.756&#10;&#9;&#9;&#9;&#9;&#9;C199.849,460.744,199.586,460.751,199.325,460.751z"/>
			</g>
			<g>
				<path style="fill:none;stroke:#000000;stroke-width:15;stroke-linecap:round;stroke-linejoin:round;stroke-miterlimit:10;" d="&#10;&#9;&#9;&#9;&#9;&#9;M351.217,460.751c-0.262,0-0.523-0.007-0.788-0.021c-8.273-0.429-14.633-7.482-14.204-15.756l12.066-233&#10;&#9;&#9;&#9;&#9;&#9;c0.428-8.273,7.474-14.631,15.755-14.204c8.273,0.429,14.633,7.482,14.204,15.756l-12.066,233&#10;&#9;&#9;&#9;&#9;&#9;C365.77,454.534,359.145,460.751,351.217,460.751z"/>
			</g>
			<g>
				<path style="fill:none;stroke:#000000;stroke-width:15;stroke-linecap:round;stroke-linejoin:round;stroke-miterlimit:10;" d="&#10;&#9;&#9;&#9;&#9;&#9;M260.271,303.404V212.75c0-8.284,6.716-15,15-15s15,6.716,15,15v233c0,8.284-6.716,15-15,15s-15-6.716-15-15V338.404"/>
			</g>
		</g>
	</g>
</g>















</svg>
